# xmcd
#
# Track frame offsets: 
#        150
#        19327
#        36635
#        52270
#        70100
#        85077
#        107515
#        127605
#        143302
#        163192
#        185630
#        208040
#        234747
#        257275
#        273850
#
# Disc length: 3870 seconds
#
# Revision: 1
# Processed by: cddbd v1.5.2PL0 Copyright (c) Steve Scherf et al.
# Submitted via: ExactAudioCopyFreeDBPlugin 1.0
#
DISCID=cd0f1c0f
DTITLE=Various Artist - Night Grooves
DYEAR=2004
DGENRE=SMB
TTITLE0=Dionne Warwick - Heartbreaker
TTITLE1=Pointer Sisters - Slow Hand
TTITLE2=Peabo Bryson and Roberta Flack - Tonight, I Celebrate My Love
TTITLE3=Grover Washington Jr. with Bill Withers - Just the Two of Us
TTITLE4=Lionel Richie - Truly
TTITLE5=Commodores - Nightshift
TTITLE6=DeBarge - Who's Holding Donna Now?
TTITLE7=Bobby Caldwell - What You Won't Do For Love
TTITLE8=Jermaine Jackson - Do What You Do
TTITLE9=Mtume - Juicy Fruit
TTITLE10=Maze - Before I Let You Go (ft Frankie Beverly)
TTITLE11=Shirley Murdock - As We Lay
TTITLE12=Teddy Pendergrass - Love TKO
TTITLE13=Whispers - Lady
TTITLE14=Billy Preston - With You I'm Born Again (ft Syreeta)
EXTD=
EXTT0=
EXTT1=
EXTT2=
EXTT3=
EXTT4=
EXTT5=
EXTT6=
EXTT7=
EXTT8=
EXTT9=
EXTT10=
EXTT11=
EXTT12=
EXTT13=
EXTT14=
PLAYORDER=
